<mxfile host="drawio-plugin" modified="2021-06-24T02:24:41.575Z" agent="5.0 (Windows NT 6.2; Win64; x64) AppleWebKit/537.36 (KHTML, like Gecko) Chrome/87.0.4280.141 Safari/537.36" etag="uFaPo2UT4p5oAe1qqYvy" version="14.7.4" type="embed"><diagram id="R2lEEEUBdFMjLlhIrx00" name="Page-1"><mxGraphModel dx="1204" dy="1820" grid="1" gridSize="10" guides="1" tooltips="1" connect="1" arrows="1" fold="1" page="1" pageScale="1" pageWidth="850" pageHeight="1100" math="0" shadow="0" extFonts="Permanent Marker^https://fonts.googleapis.com/css?family=Permanent+Marker"><root><mxCell id="0"/><mxCell id="1" parent="0"/><mxCell id="sCDjDBYQYxwlCfSlCo_a-119" value="" style="rounded=0;whiteSpace=wrap;html=1;fontSize=25;" parent="1" vertex="1"><mxGeometry x="660" y="95" width="180" height="300" as="geometry"/></mxCell><mxCell id="sCDjDBYQYxwlCfSlCo_a-1" value="" style="verticalLabelPosition=bottom;verticalAlign=top;html=1;shadow=0;dashed=0;strokeWidth=1;shape=mxgraph.android.phone2;strokeColor=#c0c0c0;" parent="1" vertex="1"><mxGeometry y="40" width="200" height="390" as="geometry"/></mxCell><mxCell id="sCDjDBYQYxwlCfSlCo_a-15" value="" style="strokeWidth=1;html=1;shadow=0;dashed=0;shape=mxgraph.android.action_bar;fillColor=#1A1A1A;strokeColor=#c0c0c0;strokeWidth=2;fontColor=#FFFFFF;fontSize=25;" parent="1" vertex="1"><mxGeometry x="10" y="70" width="185" height="30" as="geometry"/></mxCell><mxCell id="sCDjDBYQYxwlCfSlCo_a-17" value="" style="rounded=0;whiteSpace=wrap;html=1;fontSize=25;" parent="1" vertex="1"><mxGeometry x="10" y="100" width="180" height="300" as="geometry"/></mxCell><mxCell id="sCDjDBYQYxwlCfSlCo_a-20" value="Overflow Menu&lt;br&gt;" style="text;html=1;align=center;verticalAlign=middle;resizable=0;points=[];autosize=1;strokeColor=none;fontSize=12;" parent="1" vertex="1"><mxGeometry x="120" y="10" width="100" height="20" as="geometry"/></mxCell><mxCell id="sCDjDBYQYxwlCfSlCo_a-24" value="" style="strokeWidth=1;html=1;shadow=0;dashed=0;shape=mxgraph.android.action_bar;fillColor=#1A1A1A;strokeColor=#c0c0c0;strokeWidth=2;fontColor=#FFFFFF;fontSize=25;" parent="1" vertex="1"><mxGeometry x="450" y="70" width="185" height="30" as="geometry"/></mxCell><mxCell id="sCDjDBYQYxwlCfSlCo_a-25" value="" style="rounded=0;whiteSpace=wrap;html=1;fontSize=25;" parent="1" vertex="1"><mxGeometry x="450" y="100" width="180" height="300" as="geometry"/></mxCell><mxCell id="sCDjDBYQYxwlCfSlCo_a-26" value="" style="verticalLabelPosition=bottom;verticalAlign=top;html=1;shadow=0;dashed=0;strokeWidth=1;shape=mxgraph.android.phone2;strokeColor=#c0c0c0;" parent="1" vertex="1"><mxGeometry x="440" y="40" width="200" height="390" as="geometry"/></mxCell><mxCell id="sCDjDBYQYxwlCfSlCo_a-66" value="Animal / Season&lt;br style=&quot;font-size: 25px;&quot;&gt;" style="text;html=1;align=center;verticalAlign=middle;resizable=0;points=[];autosize=1;strokeColor=none;fontSize=25;" parent="1" vertex="1"><mxGeometry x="440" y="90" width="200" height="40" as="geometry"/></mxCell><mxCell id="sCDjDBYQYxwlCfSlCo_a-67" value="&lt;div style=&quot;text-align: left&quot;&gt;&lt;span style=&quot;font-size: 15px&quot;&gt;Animal select&lt;/span&gt;&lt;/div&gt;&lt;div style=&quot;text-align: left&quot;&gt;&lt;span style=&quot;font-size: 15px&quot;&gt;&lt;br&gt;&lt;/span&gt;&lt;/div&gt;&lt;div style=&quot;text-align: left&quot;&gt;&lt;span style=&quot;font-size: 15px&quot;&gt;&lt;br&gt;&lt;/span&gt;&lt;/div&gt;&lt;div style=&quot;text-align: left&quot;&gt;&lt;span style=&quot;font-size: 15px&quot;&gt;&lt;br&gt;&lt;/span&gt;&lt;/div&gt;&lt;div style=&quot;text-align: left&quot;&gt;&lt;span style=&quot;font-size: 15px&quot;&gt;&lt;br&gt;&lt;/span&gt;&lt;/div&gt;" style="rounded=0;whiteSpace=wrap;html=1;fontSize=25;" parent="1" vertex="1"><mxGeometry x="450" y="130" width="85" height="220" as="geometry"/></mxCell><mxCell id="sCDjDBYQYxwlCfSlCo_a-68" value="&lt;font style=&quot;font-size: 15px&quot;&gt;Weapon Select&lt;br&gt;&lt;br&gt;&lt;br&gt;&lt;/font&gt;" style="rounded=0;whiteSpace=wrap;html=1;fontSize=25;align=left;" parent="1" vertex="1"><mxGeometry x="510" y="170" width="65" height="130" as="geometry"/></mxCell><mxCell id="sCDjDBYQYxwlCfSlCo_a-69" value="&lt;font style=&quot;font-size: 15px&quot;&gt;Date Range&lt;br&gt;&lt;/font&gt;" style="rounded=0;whiteSpace=wrap;html=1;fontSize=25;align=left;" parent="1" vertex="1"><mxGeometry x="565" y="210" width="50" height="100" as="geometry"/></mxCell><mxCell id="sCDjDBYQYxwlCfSlCo_a-70" value="" style="verticalLabelPosition=bottom;verticalAlign=top;html=1;shadow=0;dashed=0;strokeWidth=1;shape=mxgraph.android.phone2;strokeColor=#c0c0c0;" parent="1" vertex="1"><mxGeometry x="650" y="40" width="200" height="390" as="geometry"/></mxCell><mxCell id="sCDjDBYQYxwlCfSlCo_a-71" value="" style="strokeWidth=1;html=1;shadow=0;dashed=0;shape=mxgraph.android.action_bar;fillColor=#1A1A1A;strokeColor=#c0c0c0;strokeWidth=2;fontColor=#FFFFFF;fontSize=25;" parent="1" vertex="1"><mxGeometry x="660" y="70" width="185" height="30" as="geometry"/></mxCell><mxCell id="sCDjDBYQYxwlCfSlCo_a-73" value="Settings" style="text;html=1;align=center;verticalAlign=middle;resizable=0;points=[];autosize=1;strokeColor=none;fontSize=25;" parent="1" vertex="1"><mxGeometry x="695" y="90" width="110" height="40" as="geometry"/></mxCell><mxCell id="sCDjDBYQYxwlCfSlCo_a-74" value="Map of &lt;br&gt;New Mexico" style="text;html=1;align=center;verticalAlign=middle;resizable=0;points=[];autosize=1;strokeColor=none;fontSize=25;" parent="1" vertex="1"><mxGeometry x="25" y="90" width="150" height="70" as="geometry"/></mxCell><mxCell id="sCDjDBYQYxwlCfSlCo_a-75" value="" style="shape=rect;fillColor=#ffffff;strokeColor=#eeeeee;shadow=1;fontSize=25;rotation=-180;" parent="1" vertex="1"><mxGeometry x="35" y="210" width="130" height="185" as="geometry"/></mxCell><mxCell id="sCDjDBYQYxwlCfSlCo_a-79" value="" style="shape=rect;strokeColor=none;fillColor=#666666;resizeWidth=1;resizeHeight=1;rotation=-180;" parent="sCDjDBYQYxwlCfSlCo_a-75" vertex="1"><mxGeometry x="0.0116" width="30.610465116279066" height="32.78571428571429" relative="1" as="geometry"><mxPoint y="70" as="offset"/></mxGeometry></mxCell><mxCell id="sCDjDBYQYxwlCfSlCo_a-80" value="" style="shape=rect;strokeColor=none;fillColor=#666666;resizeWidth=1;resizeHeight=1;rotation=-180;" parent="sCDjDBYQYxwlCfSlCo_a-75" vertex="1"><mxGeometry x="0.2587" width="30.610465116279066" height="32.78571428571429" relative="1" as="geometry"><mxPoint y="70" as="offset"/></mxGeometry></mxCell><mxCell id="sCDjDBYQYxwlCfSlCo_a-81" value="" style="shape=rect;strokeColor=none;fillColor=#666666;resizeWidth=1;resizeHeight=1;rotation=-180;" parent="sCDjDBYQYxwlCfSlCo_a-75" vertex="1"><mxGeometry x="0.5058" width="30.610465116279066" height="32.78571428571429" relative="1" as="geometry"><mxPoint y="70" as="offset"/></mxGeometry></mxCell><mxCell id="sCDjDBYQYxwlCfSlCo_a-82" value="" style="shape=rect;strokeColor=none;fillColor=#666666;resizeWidth=1;resizeHeight=1;rotation=-180;" parent="sCDjDBYQYxwlCfSlCo_a-75" vertex="1"><mxGeometry x="0.7529" width="30.610465116279066" height="32.78571428571429" relative="1" as="geometry"><mxPoint y="70" as="offset"/></mxGeometry></mxCell><mxCell id="sCDjDBYQYxwlCfSlCo_a-83" value="" style="shape=rect;strokeColor=none;fillColor=#666666;resizeWidth=1;resizeHeight=1;rotation=-180;" parent="sCDjDBYQYxwlCfSlCo_a-75" vertex="1"><mxGeometry x="0.0116" y="0.2024" width="30.610465116279066" height="32.78571428571429" relative="1" as="geometry"><mxPoint y="70" as="offset"/></mxGeometry></mxCell><mxCell id="sCDjDBYQYxwlCfSlCo_a-84" value="" style="shape=rect;strokeColor=none;fillColor=#666666;resizeWidth=1;resizeHeight=1;rotation=-180;" parent="sCDjDBYQYxwlCfSlCo_a-75" vertex="1"><mxGeometry x="0.2587" y="0.2024" width="30.610465116279066" height="32.78571428571429" relative="1" as="geometry"><mxPoint y="70" as="offset"/></mxGeometry></mxCell><mxCell id="sCDjDBYQYxwlCfSlCo_a-85" value="" style="shape=rect;strokeColor=none;fillColor=#666666;resizeWidth=1;resizeHeight=1;rotation=-180;" parent="sCDjDBYQYxwlCfSlCo_a-75" vertex="1"><mxGeometry x="0.5058" y="0.2024" width="30.610465116279066" height="32.78571428571429" relative="1" as="geometry"><mxPoint y="70" as="offset"/></mxGeometry></mxCell><mxCell id="sCDjDBYQYxwlCfSlCo_a-86" value="" style="shape=rect;strokeColor=none;fillColor=#666666;resizeWidth=1;resizeHeight=1;rotation=-180;" parent="sCDjDBYQYxwlCfSlCo_a-75" vertex="1"><mxGeometry x="0.7529" y="0.2024" width="30.610465116279066" height="32.78571428571429" relative="1" as="geometry"><mxPoint y="70" as="offset"/></mxGeometry></mxCell><mxCell id="sCDjDBYQYxwlCfSlCo_a-87" value="" style="shape=rect;strokeColor=none;fillColor=#666666;resizeWidth=1;resizeHeight=1;rotation=-180;" parent="sCDjDBYQYxwlCfSlCo_a-75" vertex="1"><mxGeometry x="0.0116" y="0.4048" width="30.610465116279066" height="32.78571428571429" relative="1" as="geometry"><mxPoint y="70" as="offset"/></mxGeometry></mxCell><mxCell id="sCDjDBYQYxwlCfSlCo_a-88" value="" style="shape=rect;strokeColor=none;fillColor=#666666;resizeWidth=1;resizeHeight=1;rotation=-180;" parent="sCDjDBYQYxwlCfSlCo_a-75" vertex="1"><mxGeometry x="0.2587" y="0.4048" width="30.610465116279066" height="32.78571428571429" relative="1" as="geometry"><mxPoint y="70" as="offset"/></mxGeometry></mxCell><mxCell id="sCDjDBYQYxwlCfSlCo_a-89" value="" style="shape=rect;strokeColor=none;fillColor=#666666;resizeWidth=1;resizeHeight=1;rotation=-180;" parent="sCDjDBYQYxwlCfSlCo_a-75" vertex="1"><mxGeometry x="0.5058" y="0.4048" width="30.610465116279066" height="32.78571428571429" relative="1" as="geometry"><mxPoint y="70" as="offset"/></mxGeometry></mxCell><mxCell id="sCDjDBYQYxwlCfSlCo_a-90" value="" style="shape=rect;strokeColor=none;fillColor=#666666;resizeWidth=1;resizeHeight=1;rotation=-180;" parent="sCDjDBYQYxwlCfSlCo_a-75" vertex="1"><mxGeometry x="0.7529" y="0.4048" width="30.610465116279066" height="32.78571428571429" relative="1" as="geometry"><mxPoint y="70" as="offset"/></mxGeometry></mxCell><mxCell id="sCDjDBYQYxwlCfSlCo_a-116" value="" style="html=1;verticalLabelPosition=bottom;labelBackgroundColor=#ffffff;verticalAlign=top;shadow=0;dashed=0;strokeWidth=1;shape=mxgraph.ios7ui.onOffButton;buttonState=on;strokeColor=#38D145;strokeColor2=#aaaaaa;fillColor=#38D145;fillColor2=#ffffff;fontSize=15;" parent="sCDjDBYQYxwlCfSlCo_a-75" vertex="1"><mxGeometry x="-15" y="170" width="43.5" height="15" as="geometry"/></mxCell><mxCell id="sCDjDBYQYxwlCfSlCo_a-113" value="Game Management &lt;br style=&quot;font-size: 15px;&quot;&gt;Unit Overlay" style="text;html=1;align=center;verticalAlign=middle;resizable=0;points=[];autosize=1;strokeColor=none;fontSize=15;" parent="1" vertex="1"><mxGeometry x="27.5" y="330" width="150" height="40" as="geometry"/></mxCell><mxCell id="sCDjDBYQYxwlCfSlCo_a-117" value="Map / List&amp;nbsp;&lt;br&gt;Toggle&lt;br&gt;" style="text;html=1;align=center;verticalAlign=middle;resizable=0;points=[];autosize=1;strokeColor=none;fontSize=15;" parent="1" vertex="1"><mxGeometry x="165" y="460" width="80" height="40" as="geometry"/></mxCell><mxCell id="sCDjDBYQYxwlCfSlCo_a-118" value="" style="endArrow=none;dashed=1;html=1;dashPattern=1 3;strokeWidth=2;fontSize=15;entryX=0.75;entryY=0;entryDx=0;entryDy=0;" parent="1" target="sCDjDBYQYxwlCfSlCo_a-75" edge="1"><mxGeometry width="50" height="50" relative="1" as="geometry"><mxPoint x="190" y="450" as="sourcePoint"/><mxPoint x="70" y="380" as="targetPoint"/></mxGeometry></mxCell><mxCell id="sCDjDBYQYxwlCfSlCo_a-142" value="" style="verticalLabelPosition=bottom;verticalAlign=top;html=1;shadow=0;dashed=0;strokeWidth=1;shape=mxgraph.android.phone2;strokeColor=#c0c0c0;" parent="1" vertex="1"><mxGeometry x="225" y="40" width="200" height="390" as="geometry"/></mxCell><mxCell id="sCDjDBYQYxwlCfSlCo_a-143" value="" style="strokeWidth=1;html=1;shadow=0;dashed=0;shape=mxgraph.android.action_bar;fillColor=#1A1A1A;strokeColor=#c0c0c0;strokeWidth=2;fontColor=#FFFFFF;fontSize=25;" parent="1" vertex="1"><mxGeometry x="235" y="70" width="185" height="30" as="geometry"/></mxCell><mxCell id="sCDjDBYQYxwlCfSlCo_a-144" value="" style="rounded=0;whiteSpace=wrap;html=1;fontSize=25;" parent="1" vertex="1"><mxGeometry x="235" y="100" width="180" height="300" as="geometry"/></mxCell><mxCell id="sCDjDBYQYxwlCfSlCo_a-162" value="" style="endArrow=none;dashed=1;html=1;dashPattern=1 3;strokeWidth=2;fontSize=15;entryX=0.194;entryY=1.013;entryDx=0;entryDy=0;entryPerimeter=0;" parent="1" target="sCDjDBYQYxwlCfSlCo_a-144" edge="1"><mxGeometry width="50" height="50" relative="1" as="geometry"><mxPoint x="210" y="450" as="sourcePoint"/><mxPoint x="295" y="380" as="targetPoint"/></mxGeometry></mxCell><mxCell id="sCDjDBYQYxwlCfSlCo_a-18" value="* Animal/&lt;br&gt;&amp;nbsp; &amp;nbsp;Season&lt;br&gt;* Settings" style="whiteSpace=wrap;html=1;aspect=fixed;fontSize=12;align=left;" parent="1" vertex="1"><mxGeometry x="235" width="60" height="60" as="geometry"/></mxCell><mxCell id="sCDjDBYQYxwlCfSlCo_a-163" value="" style="endArrow=none;dashed=1;html=1;dashPattern=1 3;strokeWidth=2;fontSize=15;" parent="1" edge="1"><mxGeometry width="50" height="50" relative="1" as="geometry"><mxPoint x="177.5" y="70" as="sourcePoint"/><mxPoint x="227.5" y="20" as="targetPoint"/></mxGeometry></mxCell><mxCell id="sCDjDBYQYxwlCfSlCo_a-166" value="" style="shape=rect;strokeColor=#eeeeee;fillColor=#ffffff;shadow=1;fontSize=15;" parent="1" vertex="1"><mxGeometry x="250" y="130" width="120" height="260" as="geometry"/></mxCell><mxCell id="sCDjDBYQYxwlCfSlCo_a-173" value="Option item 7" style="text;verticalAlign=middle;spacing=0;spacingLeft=16;fontSize=15;resizeWidth=1;" parent="sCDjDBYQYxwlCfSlCo_a-166" vertex="1"><mxGeometry width="120" height="42" relative="1" as="geometry"><mxPoint y="252" as="offset"/></mxGeometry></mxCell><mxCell id="sCDjDBYQYxwlCfSlCo_a-167" value="Option item 1" style="text;verticalAlign=middle;spacing=0;spacingLeft=16;fontSize=15;resizeWidth=1;" parent="sCDjDBYQYxwlCfSlCo_a-166" vertex="1"><mxGeometry width="120" height="42" relative="1" as="geometry"/></mxCell><mxCell id="sCDjDBYQYxwlCfSlCo_a-168" value="Option item 2" style="text;verticalAlign=middle;spacing=0;spacingLeft=16;fontSize=15;resizeWidth=1;" parent="sCDjDBYQYxwlCfSlCo_a-166" vertex="1"><mxGeometry width="120" height="42" relative="1" as="geometry"><mxPoint y="42" as="offset"/></mxGeometry></mxCell><mxCell id="sCDjDBYQYxwlCfSlCo_a-169" value="Option item 3" style="text;verticalAlign=middle;spacing=0;spacingLeft=16;fontSize=15;resizeWidth=1;" parent="sCDjDBYQYxwlCfSlCo_a-166" vertex="1"><mxGeometry width="120" height="42" relative="1" as="geometry"><mxPoint y="84" as="offset"/></mxGeometry></mxCell><mxCell id="sCDjDBYQYxwlCfSlCo_a-170" value="Option item 4" style="text;verticalAlign=middle;spacing=0;spacingLeft=16;fontSize=15;resizeWidth=1;" parent="sCDjDBYQYxwlCfSlCo_a-166" vertex="1"><mxGeometry width="120" height="42" relative="1" as="geometry"><mxPoint y="126" as="offset"/></mxGeometry></mxCell><mxCell id="sCDjDBYQYxwlCfSlCo_a-171" value="Option item 5" style="text;verticalAlign=middle;spacing=0;spacingLeft=16;fontSize=15;resizeWidth=1;" parent="sCDjDBYQYxwlCfSlCo_a-166" vertex="1"><mxGeometry width="120" height="42" relative="1" as="geometry"><mxPoint y="168" as="offset"/></mxGeometry></mxCell><mxCell id="sCDjDBYQYxwlCfSlCo_a-172" value="Option item 6" style="text;verticalAlign=middle;spacing=0;spacingLeft=16;fontSize=15;resizeWidth=1;" parent="sCDjDBYQYxwlCfSlCo_a-166" vertex="1"><mxGeometry width="120" height="42" relative="1" as="geometry"><mxPoint y="210" as="offset"/></mxGeometry></mxCell><mxCell id="sCDjDBYQYxwlCfSlCo_a-177" value="" style="shape=rect;strokeColor=none;fillColor=#dddddd;" parent="sCDjDBYQYxwlCfSlCo_a-166" vertex="1"><mxGeometry x="1" width="4" height="190" relative="1" as="geometry"><mxPoint x="-4" y="30" as="offset"/></mxGeometry></mxCell><mxCell id="sCDjDBYQYxwlCfSlCo_a-178" value="" style="html=1;verticalLabelPosition=bottom;labelBackgroundColor=#ffffff;verticalAlign=top;shadow=0;dashed=0;strokeWidth=1;shape=mxgraph.ios7ui.onOffButton;buttonState=on;strokeColor=#006EAF;strokeColor2=#aaaaaa;fillColor=#1ba1e2;fillColor2=#ffffff;fontSize=15;rotation=-180;fontColor=#ffffff;" parent="sCDjDBYQYxwlCfSlCo_a-166" vertex="1"><mxGeometry y="246.55172413793105" width="43.5" height="13.448275862068966" as="geometry"/></mxCell><mxCell id="sCDjDBYQYxwlCfSlCo_a-160" value="&lt;font style=&quot;font-size: 20px&quot;&gt;Game Management &lt;br&gt;Unit List&lt;/font&gt;" style="text;html=1;align=center;verticalAlign=middle;resizable=0;points=[];autosize=1;strokeColor=none;fontSize=15;" parent="1" vertex="1"><mxGeometry x="230" y="95" width="190" height="50" as="geometry"/></mxCell><mxCell id="sCDjDBYQYxwlCfSlCo_a-184" value="" style="edgeStyle=orthogonalEdgeStyle;rounded=0;orthogonalLoop=1;jettySize=auto;html=1;fontSize=15;" parent="1" source="sCDjDBYQYxwlCfSlCo_a-179" target="sCDjDBYQYxwlCfSlCo_a-73" edge="1"><mxGeometry relative="1" as="geometry"/></mxCell><mxCell id="sCDjDBYQYxwlCfSlCo_a-179" value="Setting 1" style="shape=ellipse;fillColor=#eeeeee;strokeColor=#999999;gradientColor=#cccccc;html=1;align=left;spacingLeft=4;fontSize=17;fontColor=#666666;labelPosition=right;shadow=0;" parent="1" vertex="1"><mxGeometry x="680" y="145" width="15" height="15" as="geometry"/></mxCell><mxCell id="sCDjDBYQYxwlCfSlCo_a-180" value="Setting 2" style="shape=ellipse;fillColor=#eeeeee;strokeColor=#999999;gradientColor=#cccccc;html=1;align=left;spacingLeft=4;fontSize=17;fontColor=#666666;labelPosition=right;shadow=0;" parent="1" vertex="1"><mxGeometry x="680" y="180" width="15" height="15" as="geometry"/></mxCell><mxCell id="sCDjDBYQYxwlCfSlCo_a-181" value="Setting 3" style="shape=ellipse;fillColor=#eeeeee;strokeColor=#999999;gradientColor=#cccccc;html=1;align=left;spacingLeft=4;fontSize=17;fontColor=#666666;labelPosition=right;shadow=0;" parent="1" vertex="1"><mxGeometry x="680" y="220" width="15" height="15" as="geometry"/></mxCell><mxCell id="sCDjDBYQYxwlCfSlCo_a-182" value="Setting 4" style="shape=ellipse;fillColor=#eeeeee;strokeColor=#999999;gradientColor=#cccccc;html=1;align=left;spacingLeft=4;fontSize=17;fontColor=#666666;labelPosition=right;shadow=0;" parent="1" vertex="1"><mxGeometry x="680" y="260" width="15" height="15" as="geometry"/></mxCell><mxCell id="sCDjDBYQYxwlCfSlCo_a-183" value="Setting 5" style="shape=ellipse;fillColor=#eeeeee;strokeColor=#999999;gradientColor=#cccccc;html=1;align=left;spacingLeft=4;fontSize=17;fontColor=#666666;labelPosition=right;shadow=0;" parent="1" vertex="1"><mxGeometry x="680" y="300" width="15" height="15" as="geometry"/></mxCell><mxCell id="eLxCc4VWd-7hcpHR8xmp-1" value="" style="curved=1;endArrow=classic;html=1;" parent="1" target="sCDjDBYQYxwlCfSlCo_a-26" edge="1"><mxGeometry width="50" height="50" relative="1" as="geometry"><mxPoint x="300" y="20" as="sourcePoint"/><mxPoint x="480" y="20" as="targetPoint"/><Array as="points"><mxPoint x="430" y="-10"/></Array></mxGeometry></mxCell><mxCell id="eLxCc4VWd-7hcpHR8xmp-2" value="" style="curved=1;endArrow=classic;html=1;entryX=0.04;entryY=0.023;entryDx=0;entryDy=0;entryPerimeter=0;" parent="1" target="sCDjDBYQYxwlCfSlCo_a-70" edge="1"><mxGeometry width="50" height="50" relative="1" as="geometry"><mxPoint x="300" y="45" as="sourcePoint"/><mxPoint x="670" y="40" as="targetPoint"/><Array as="points"><mxPoint x="390" y="-10"/></Array></mxGeometry></mxCell><mxCell id="eLxCc4VWd-7hcpHR8xmp-3" value="" style="endArrow=classic;html=1;exitX=0.504;exitY=-0.08;exitDx=0;exitDy=0;exitPerimeter=0;" parent="1" source="eLxCc4VWd-7hcpHR8xmp-4" target="sCDjDBYQYxwlCfSlCo_a-67" edge="1"><mxGeometry width="50" height="50" relative="1" as="geometry"><mxPoint x="430" y="480" as="sourcePoint"/><mxPoint x="480" y="430" as="targetPoint"/></mxGeometry></mxCell><mxCell id="eLxCc4VWd-7hcpHR8xmp-4" value="Cascading Menu:&amp;nbsp; &lt;br&gt;Animal selection followed &lt;br&gt;by legal weapon choice finalized with date range." style="text;html=1;align=center;verticalAlign=middle;resizable=0;points=[];autosize=1;strokeColor=none;" parent="1" vertex="1"><mxGeometry x="300" y="460" width="280" height="50" as="geometry"/></mxCell><mxCell id="eLxCc4VWd-7hcpHR8xmp-6" value="" style="endArrow=classic;html=1;" parent="1" edge="1"><mxGeometry width="50" height="50" relative="1" as="geometry"><mxPoint x="480" y="260" as="sourcePoint"/><mxPoint x="520" y="235" as="targetPoint"/></mxGeometry></mxCell><mxCell id="eLxCc4VWd-7hcpHR8xmp-7" value="" style="endArrow=classic;html=1;" parent="1" edge="1"><mxGeometry width="50" height="50" relative="1" as="geometry"><mxPoint x="550" y="252.5" as="sourcePoint"/><mxPoint x="580" y="230" as="targetPoint"/></mxGeometry></mxCell><mxCell id="eLxCc4VWd-7hcpHR8xmp-9" value="* Animal/&lt;br&gt;&amp;nbsp; &amp;nbsp;Season&lt;br&gt;* Settings" style="whiteSpace=wrap;html=1;aspect=fixed;fontSize=12;align=left;" parent="1" vertex="1"><mxGeometry x="780" y="-40" width="60" height="60" as="geometry"/></mxCell><mxCell id="eLxCc4VWd-7hcpHR8xmp-10" value="" style="curved=1;endArrow=classic;html=1;exitX=0;exitY=0.25;exitDx=0;exitDy=0;" parent="1" source="eLxCc4VWd-7hcpHR8xmp-9" edge="1"><mxGeometry width="50" height="50" relative="1" as="geometry"><mxPoint x="690" y="-20" as="sourcePoint"/><mxPoint x="90" y="30" as="targetPoint"/><Array as="points"><mxPoint x="550" y="-30"/><mxPoint x="170" y="-60"/></Array></mxGeometry></mxCell></root></mxGraphModel></diagram></mxfile>